<?xml version="1.0" standalone="no"?>
<!DOCTYPE svg PUBLIC "-//W3C//DTD SVG 20010904//EN"
 "http://www.w3.org/TR/2001/REC-SVG-20010904/DTD/svg10.dtd">
<svg version="1.0" xmlns="http://www.w3.org/2000/svg"
 width="306.000000pt" height="306.000000pt" viewBox="0 0 306.000000 306.000000"
 preserveAspectRatio="xMidYMid meet">
<metadata>
Created by potrace 1.16, written by Peter Selinger 2001-2019
</metadata>
<g transform="translate(0.000000,306.000000) scale(0.100000,-0.100000)"
fill="#000000" stroke="none">
<path d="M1387 2363 c-4 -3 -7 -52 -7 -107 0 -83 -4 -107 -20 -133 -28 -47
-94 -90 -153 -102 -380 -75 -500 -125 -653 -276 -61 -61 -90 -98 -118 -155
-61 -125 -67 -175 -64 -553 3 -332 3 -332 76 -331 56 1 84 8 126 28 49 24 116
85 141 131 10 17 14 16 55 -14 141 -102 462 -118 645 -32 173 81 294 233 330
411 7 36 16 127 20 203 3 75 13 160 21 188 31 105 121 163 254 164 108 0 180
-55 227 -175 15 -39 17 -75 15 -284 -4 -346 14 -445 91 -513 48 -42 91 -53
210 -53 97 0 97 0 97 399 0 460 -4 493 -75 638 -63 128 -142 207 -268 267 -51
25 -117 50 -147 56 -82 18 -314 9 -365 -13 -22 -10 -42 -17 -45 -15 -3 2 -5
23 -6 48 -4 254 16 230 -192 230 -104 0 -192 -3 -195 -7z m9 -700 c-4 -16 -9
-102 -12 -192 -5 -183 -15 -220 -74 -279 -126 -126 -334 -96 -413 59 -65 128
-16 289 107 349 24 11 108 31 190 45 81 13 155 29 164 34 32 19 45 13 38 -16z"/>
<path d="M377 2273 c-10 -9 -8 -526 1 -541 6 -9 21 4 53 43 55 70 144 139 229
177 36 16 72 33 80 38 25 13 19 126 -9 175 -24 44 -77 85 -130 103 -36 13
-213 17 -224 5z"/>
</g>
</svg>
